<mxfile host="app.diagrams.net" modified="2023-04-07T04:47:25.782Z" agent="Mozilla/5.0 (Windows NT 10.0; Win64; x64) AppleWebKit/537.36 (KHTML, like Gecko) Chrome/98.0.4758.139 Safari/537.36" version="21.1.4" etag="x0EEmyvh7yxpsewaI3nn" type="github">
  <diagram name="第 1 页" id="PvJt-z2S1s9Gf63JWSOC">
    <mxGraphModel>
      <root>
        <mxCell id="0" />
        <mxCell id="1" parent="0" />
      </root>
    </mxGraphModel>
  </diagram>
</mxfile>
